ply
format ascii 1.0
comment VCGLIB generated
element vertex 25
property float x
property float y
property float z
property float nx
property float ny
property float nz
element face 32
property list uchar int vertex_indices
end_header
0 0 0 0 -625.0001 8.195885e-05 
25 0 0 0 -625.0001 8.195885e-05 
49.99999 0 0 0 -625.0001 8.195885e-05 
74.99998 0 0 0 -625.0001 8.195885e-05 
99.99998 0 0 0 -625.0001 8.195885e-05 
0 3.278354e-06 25 0 -625.0001 8.195885e-05 
25 3.278354e-06 25 0 -625.0001 8.195885e-05 
49.99999 3.278354e-06 25 0 -625.0001 8.195885e-05 
74.99998 3.278354e-06 25 0 -625.0001 8.195885e-05 
99.99998 3.278354e-06 25 0 -625.0001 8.195885e-05 
0 6.556708e-06 50 0 -625.0001 8.195885e-05 
25 6.556708e-06 50 0 -625.0001 8.195885e-05 
49.99999 6.556708e-06 50 0 -625.0001 8.195885e-05 
74.99998 6.556708e-06 50 0 -625.0001 8.195885e-05 
99.99998 6.556708e-06 50 0 -625.0001 8.195885e-05 
0 9.835062e-06 75 0 -625.0001 8.195885e-05 
25 9.835062e-06 75 0 -625.0001 8.195885e-05 
49.99999 9.835062e-06 75 0 -625.0001 8.195885e-05 
74.99998 9.835062e-06 75 0 -625.0001 8.195885e-05 
99.99998 9.835062e-06 75 0 -625.0001 8.195885e-05 
0 1.311342e-05 100 0 -625.0001 8.195885e-05 
25 1.311342e-05 100 0 -625.0001 8.195885e-05 
49.99999 1.311342e-05 100 0 -625.0001 8.195885e-05 
74.99998 1.311342e-05 100 0 -625.0001 8.195885e-05 
99.99998 1.311342e-05 100 0 -625.0001 8.195885e-05 
3 0 1 5 
3 1 6 5 
3 1 2 6 
3 2 7 6 
3 2 3 7 
3 3 8 7 
3 3 4 8 
3 4 9 8 
3 5 6 10 
3 6 11 10 
3 6 7 11 
3 7 12 11 
3 7 8 12 
3 8 13 12 
3 8 9 13 
3 9 14 13 
3 10 11 15 
3 11 16 15 
3 11 12 16 
3 12 17 16 
3 12 13 17 
3 13 18 17 
3 13 14 18 
3 14 19 18 
3 15 16 20 
3 16 21 20 
3 16 17 21 
3 17 22 21 
3 17 18 22 
3 18 23 22 
3 18 19 23 
3 19 24 23 
